<?xml version="1.0" encoding="UTF-8" standalone="no"?>
<!-- Created with Inkscape (http://www.inkscape.org/) -->

<svg
   width="136.92935mm"
   height="160.94658mm"
   viewBox="0 0 136.92935 160.94658"
   version="1.1"
   id="svg1"
   xml:space="preserve"
   inkscape:version="1.3.2 (091e20e, 2023-11-25, custom)"
   sodipodi:docname="Android.svg"
   xmlns:inkscape="http://www.inkscape.org/namespaces/inkscape"
   xmlns:sodipodi="http://sodipodi.sourceforge.net/DTD/sodipodi-0.dtd"
   xmlns="http://www.w3.org/2000/svg"
   xmlns:svg="http://www.w3.org/2000/svg"><sodipodi:namedview
     id="namedview1"
     pagecolor="#ffffff"
     bordercolor="#eeeeee"
     borderopacity="1"
     inkscape:showpageshadow="0"
     inkscape:pageopacity="0"
     inkscape:pagecheckerboard="0"
     inkscape:deskcolor="#505050"
     inkscape:document-units="mm"
     inkscape:zoom="0.95499439"
     inkscape:cx="252.88107"
     inkscape:cy="323.56211"
     inkscape:window-width="1366"
     inkscape:window-height="745"
     inkscape:window-x="-8"
     inkscape:window-y="-8"
     inkscape:window-maximized="1"
     inkscape:current-layer="layer1" /><defs
     id="defs1"><inkscape:path-effect
       effect="bspline"
       id="path-effect19"
       is_visible="true"
       lpeversion="1.3"
       weight="33.333333"
       steps="2"
       helper_size="0"
       apply_no_weight="true"
       apply_with_weight="true"
       only_selected="false"
       uniform="false" /><inkscape:path-effect
       effect="bspline"
       id="path-effect6"
       is_visible="true"
       lpeversion="1.3"
       weight="33.333333"
       steps="2"
       helper_size="0"
       apply_no_weight="true"
       apply_with_weight="true"
       only_selected="false"
       uniform="false" /><inkscape:path-effect
       effect="bspline"
       id="path-effect5"
       is_visible="true"
       lpeversion="1.3"
       weight="33.333333"
       steps="2"
       helper_size="0"
       apply_no_weight="true"
       apply_with_weight="true"
       only_selected="false"
       uniform="false" /><inkscape:path-effect
       effect="bspline"
       id="path-effect3"
       is_visible="true"
       lpeversion="1.3"
       weight="33.333333"
       steps="2"
       helper_size="0"
       apply_no_weight="true"
       apply_with_weight="true"
       only_selected="false"
       uniform="false" /><inkscape:path-effect
       effect="bspline"
       id="path-effect2"
       is_visible="true"
       lpeversion="1.3"
       weight="33.333333"
       steps="2"
       helper_size="0"
       apply_no_weight="true"
       apply_with_weight="true"
       only_selected="false"
       uniform="false" /></defs><g
     inkscape:label="Capa 1"
     inkscape:groupmode="layer"
     id="layer1"
     transform="translate(-37.059442,-51.670243)"><path
       style="fill:#000000;stroke-width:0.264583"
       d="m 61.644122,96.275651 c 10.989738,0.138528 21.979477,0.277053 32.969215,0.415578 18.285813,-0.04618 54.856343,-0.138525 54.856343,-0.138525 l -0.69263,-4.017256 -1.38526,-6.095151 c 0,0 -1.56996,-3.69403 -2.35494,-5.541044 -1.55688,-2.315019 -3.1137,-4.629946 -4.67055,-6.944921 -2.155,-1.828488 -4.30992,-3.656904 -6.46488,-5.485355 -1.20811,-0.750985 -3.33039,-1.959054 -3.33039,-1.959054 l -3.5263,-1.665198 7.39487,-11.09659 c 0,0 -0.0462,-0.877335 -0.0693,-1.316 -0.30014,-0.230881 -0.60028,-0.461754 -0.90041,-0.692629 -0.3925,0.04617 -0.78499,0.09235 -1.17748,0.138525 -0.36941,0.554117 -0.7388,1.10821 -1.10821,1.662313 -1.87014,2.816755 -6.85704,10.320198 -6.85704,10.320198 l -0.62337,-0.346316 c 0,0 -4.70989,-1.154385 -7.06483,-1.731576 -3.60175,-0.277059 -7.20336,-0.554107 -10.80504,-0.831157 -2.37808,0.11544 -4.75606,0.230875 -7.134091,0.346313 -2.585871,0.369411 -5.171642,0.738807 -7.757462,1.10821 -0.738823,0.184706 -1.477613,0.369403 -2.216417,0.554104 -0.484852,0.161618 -0.969685,0.323228 -1.454526,0.484843 -0.161618,0 -0.692631,0.207788 -0.692631,0.207788 l -7.96525,-11.56693 c 0,0 -0.554106,-0.277053 -0.831157,-0.415578 -0.369411,0.11544 -0.738806,0.230875 -1.10821,0.346313 -0.184705,0.346324 -0.369403,0.692632 -0.554103,1.038947 0.161615,0.300146 7.618936,11.705458 7.618936,11.705458 l -0.761894,0.277051 c 0,0 -4.709888,2.49347 -7.064833,3.740205 -2.170284,2.285727 -4.340484,4.571362 -6.510726,6.857042 -0.969703,1.408377 -1.939367,2.816699 -2.909049,4.225047 -0.646469,1.292936 -1.29291,2.585823 -1.939367,3.878733 -0.415586,1.385287 -0.831156,2.770521 -1.246735,4.155784 -0.323233,1.339112 -0.646453,2.678171 -0.969682,4.017256 -0.11544,0.531027 -0.230878,1.062035 -0.346315,1.593051 -0.04618,0.323233 -0.346316,2.770521 -0.346316,2.770521 z"
       id="path1" /><path
       style="fill:#ffffff;stroke-width:0.264583"
       d="m 128.90583,79.962099 c -0.098,0.424462 -0.29386,1.273385 -0.73466,1.959062 -0.44079,0.685676 -1.12644,1.208078 -1.95905,1.550915 -0.83261,0.342836 -1.81212,0.506087 -2.72635,0.440782 -0.91424,-0.0653 -1.76314,-0.359154 -2.43249,-0.930554 -0.66935,-0.5714 -1.15911,-1.420309 -1.42031,-2.334545 -0.26119,-0.914236 -0.29383,-1.893743 -0.0489,-2.758998 0.24489,-0.865256 0.7673,-1.616215 1.43665,-2.171284 0.66935,-0.555069 1.48561,-0.914223 2.35086,-1.044826 0.86526,-0.130602 1.77947,-0.03265 2.5631,0.261213 0.78363,0.293864 1.43664,0.783621 1.89375,1.338692 0.45712,0.555071 0.71832,1.175424 0.88158,1.730495 0.16325,0.555071 0.22855,1.044825 0.2612,1.289706 0.0326,0.244881 0.0326,0.244881 -0.0653,0.669342 z"
       id="path2"
       inkscape:path-effect="#path-effect2"
       inkscape:original-d="m 129.00378,79.537638 c -0.1959,0.848924 -0.39181,1.697847 -0.58772,2.546774 -0.68568,0.522425 -1.37133,1.044829 -2.057,1.567243 -0.97955,0.163259 -1.95906,0.326509 -2.93859,0.489762 -0.84894,-0.293862 -1.69784,-0.587716 -2.54677,-0.881573 -0.48977,-0.848942 -0.97953,-1.697847 -1.46929,-2.546773 -0.0327,-0.979546 -0.0653,-1.959054 -0.0979,-2.938582 0.52242,-0.750985 1.04483,-1.501941 1.56724,-2.252913 0.81629,-0.359167 1.63255,-0.71832 2.44882,-1.077482 0.91424,0.09796 1.82845,0.195906 2.74268,0.29386 0.65303,0.489773 1.30604,0.979527 1.95905,1.469292 0.26122,0.620379 0.52242,1.240734 0.78363,1.8611 0.0653,0.489776 0.1306,0.97953 0.1959,1.469292 z" /><path
       style="fill:#ffffff;stroke-width:0.264583"
       d="m 85.888243,84.05979 c -0.408137,-0.08163 -1.224411,-0.244881 -1.861108,-0.55507 -0.636697,-0.310188 -1.0938,-0.76729 -1.452962,-1.289711 -0.359163,-0.522421 -0.620365,-1.110127 -0.750969,-1.812129 -0.130603,-0.702002 -0.130603,-1.51826 0.06531,-2.269238 0.195909,-0.750977 0.587713,-1.436634 1.224415,-2.024355 0.636701,-0.58772 1.518257,-1.077474 2.334537,-1.338682 0.816281,-0.261208 1.567238,-0.293857 2.350868,-0.08162 0.783629,0.212236 1.599887,0.669341 2.220258,1.420323 0.620372,0.750981 1.044825,1.795789 1.142775,2.840628 0.09795,1.04484 -0.130601,2.089648 -0.702001,2.922254 -0.571401,0.832605 -1.485608,1.45296 -2.236585,1.795794 -0.750978,0.342835 -1.338681,0.408135 -1.632539,0.440786 -0.293858,0.03265 -0.293858,0.03265 -0.701995,-0.04898 z"
       id="path3"
       inkscape:path-effect="#path-effect3"
       inkscape:original-d="m 86.29638,84.141417 c -0.816274,-0.163253 -1.632548,-0.326509 -2.448819,-0.489762 -0.457124,-0.457123 -0.914226,-0.914225 -1.371338,-1.371338 -0.261213,-0.587729 -0.522415,-1.175435 -0.783622,-1.763151 0,-0.816288 0,-1.632546 0,-2.44882 0.391819,-0.685681 0.783622,-1.371338 1.175432,-2.057005 0.881592,-0.489776 1.763149,-0.979528 2.644725,-1.469293 0.750985,-0.03265 1.501942,-0.0653 2.252911,-0.09795 0.81629,0.457124 1.632548,0.914228 2.44882,1.371341 0.424471,1.04485 0.848923,2.089658 1.273386,3.134487 -0.22856,1.04485 -0.457112,2.089658 -0.68567,3.13449 -0.914244,0.620379 -1.828451,1.240734 -2.742676,1.8611 -0.58773,0.0653 -1.175433,0.130604 -1.763149,0.195905 z" /><path
       style="fill:#000000;stroke-width:0.264583"
       d="m 173.9888,154.8722 c 0,0 0,-45.43657 0,-45.43657 -0.20414,-0.49723 -0.40828,-0.99446 -0.75524,-1.60224 -0.34695,-0.60779 -0.83671,-1.32609 -1.55504,-1.99544 -0.71833,-0.66935 -1.66518,-1.28971 -2.84063,-1.69785 -1.17545,-0.40814 -2.57941,-0.60404 -3.93444,-0.58771 -1.35502,0.0163 -2.66103,0.24488 -3.65689,0.55507 -0.99586,0.31019 -1.68152,0.70199 -2.33454,1.22441 -0.65303,0.52242 -1.27338,1.17543 -1.7305,1.87743 -0.45711,0.702 -0.75096,1.45296 -0.89761,1.95905 -0.14665,0.50609 -0.0819,30.67553 -0.0493,45.89086 0.22856,0.62037 0.45711,1.24074 0.84893,1.89376 0.39181,0.65303 0.94687,1.33869 1.74682,1.94274 0.79996,0.60404 1.84477,1.12645 2.93859,1.50193 1.09382,0.37549 2.23658,0.60404 3.47732,0.58772 1.24075,-0.0163 2.57941,-0.27753 3.72221,-0.702 1.14279,-0.42447 2.08965,-1.01218 2.80797,-1.6652 0.71833,-0.65303 1.20808,-1.37133 1.53871,-2.00655 0.33063,-0.63522 0.50211,-1.18731 0.58786,-1.46336 0.0857,-0.27605 0.0858,-0.27605 0.0858,-0.27605 z"
       id="path5"
       inkscape:path-effect="#path-effect5"
       inkscape:original-d="m 173.9888,154.8722 v -45.43657 c 0,0 -0.40828,-0.99446 -0.61242,-1.49169 -0.48977,-0.71834 -0.97953,-1.43664 -1.46929,-2.15496 -0.9469,-0.62038 -1.89375,-1.24074 -2.84063,-1.86111 -1.40402,-0.1959 -2.80798,-0.39181 -4.21197,-0.58771 -1.30606,0.22856 -2.61207,0.45711 -3.91811,0.68567 -0.68568,0.39182 -1.37134,0.78362 -2.05701,1.17543 -0.62038,0.65303 -1.24073,1.30604 -1.8611,1.95906 -0.29386,0.75098 -0.58772,1.50194 -0.88157,2.25291 0,0.26121 0.0979,45.64598 0.0979,45.64598 0,0 0.45711,1.24074 0.68567,1.86111 0.55507,0.68568 1.11013,1.37134 1.66519,2.05701 1.04485,0.52242 2.08966,1.04482 3.13449,1.56724 1.14281,0.22856 2.28557,0.45711 3.42835,0.68567 1.33871,-0.26121 2.67737,-0.52242 4.01606,-0.78362 0.9469,-0.58773 1.89376,-1.17544 2.84063,-1.76315 0.48978,-0.71834 0.97953,-1.43664 1.46929,-2.15496 0.1715,-0.55212 0.34298,-1.10421 0.51447,-1.65631 z" /><path
       style="fill:#000000;stroke-width:0.264583"
       d="m 61.51433,170.4378 c 0,0 0.195906,-67.78331 0.195906,-67.78331 0,0 87.373864,0.39181 87.373864,0.39181 0,0 0,68.17512 0,68.17512 -0.32651,1.63255 -0.65302,3.26509 -1.404,4.63644 -0.75099,1.37135 -1.9264,2.48146 -3.36305,3.36304 -1.43666,0.88158 -3.13447,1.53459 -4.89764,1.82845 -1.76317,0.29386 -3.59159,0.22855 -4.59555,0.1936 -1.00395,-0.035 -2.09788,-0.063 -2.73457,-0.0794 0,0 -0.0739,25.2403 -0.0739,25.2403 -0.27705,0.92351 -0.55411,1.84701 -1.17748,2.632 -0.62338,0.78499 -1.59304,1.43142 -2.60891,2.00862 -1.01587,0.5772 -2.07788,1.08512 -3.37081,1.26982 -1.29292,0.1847 -2.81668,0.0462 -4.31739,-0.3925 -1.50072,-0.43867 -2.9783,-1.17746 -3.89027,-1.82392 -0.91196,-0.64646 -1.25827,-1.20055 -1.52378,-1.67385 -0.26551,-0.47331 -0.45021,-0.86579 -0.54411,-1.35075 -0.0939,-0.48496 -0.18315,-17.08477 -0.22933,-25.67339 0,0 -17.800606,-0.0693 -17.800606,-0.0693 0,0 -0.06924,24.85986 -0.06924,24.85986 -0.228556,0.68567 -0.457112,1.37134 -0.930557,2.15497 -0.473444,0.78363 -1.191751,1.66519 -2.089661,2.36719 -0.897911,0.702 -1.975373,1.22441 -3.281425,1.55092 -1.306051,0.32651 -2.840613,0.45711 -4.277267,0.2612 -1.436654,-0.19591 -2.775315,-0.71832 -3.803826,-1.38767 -1.028511,-0.66935 -1.746819,-1.48561 -2.252911,-2.35087 -0.506092,-0.86526 -0.799942,-1.77946 -0.94466,-2.51409 -0.144718,-0.73463 -0.01854,-16.57036 0.04676,-24.76574 0,0 0,-0.29386 0,-0.29386 0,0 -7.762756,0 -7.762756,0 -0.644856,-0.1306 -1.289712,-0.26121 -2.028446,-0.51426 -0.738734,-0.25304 -1.571317,-0.62852 -2.371271,-1.11829 -0.799955,-0.48977 -1.567237,-1.0938 -2.26924,-1.89376 -0.702003,-0.79996 -1.338682,-1.79579 -1.80396,-2.71818 -0.465278,-0.9224 -0.759131,-1.77131 -0.930549,-2.51413 -0.171417,-0.74281 -0.220393,-1.37949 -0.244882,-1.69783 -0.02449,-0.31835 -0.02449,-0.31829 -0.02449,-0.31829 z"
       id="path6"
       inkscape:path-effect="#path-effect6"
       inkscape:original-d="m 61.51433,170.4378 0.195906,-67.78331 87.373864,0.39181 v 68.17512 c 0,0 -0.65302,3.26509 -0.97953,4.89764 -1.17546,1.11015 -2.35087,2.22026 -3.5263,3.33039 -1.69788,0.65303 -3.39569,1.30604 -5.09354,1.95906 -1.82849,-0.0653 -3.65691,-0.13061 -5.48536,-0.19591 -0.17958,0 -1.91008,-0.049 -1.91008,-0.049 l -0.0739,25.2403 c 0,0 -0.5541,1.84701 -0.83116,2.77052 -0.9697,0.64647 -1.93936,1.29291 -2.90905,1.93936 -1.06205,0.50794 -2.12406,1.01586 -3.1861,1.52379 -1.52381,-0.13853 -3.04757,-0.27705 -4.57136,-0.41558 -1.47764,-0.73882 -2.95522,-1.47761 -4.43283,-2.21642 -0.34633,-0.55411 -0.69263,-1.1082 -1.03895,-1.66231 -0.1847,-0.3925 -0.3694,-0.78498 -0.5541,-1.17747 -0.0462,-0.5772 -0.13853,-25.76586 -0.13853,-25.76586 l -17.800606,-0.0693 -0.06924,24.85986 c 0,0 -0.457113,1.37134 -0.685668,2.05701 -0.718335,0.88159 -1.436642,1.76315 -2.154962,2.64473 -1.0775,0.52242 -2.15496,1.04483 -3.232441,1.56724 -1.534623,0.13061 -3.069185,0.26121 -4.603779,0.39181 -1.338715,-0.52242 -2.677374,-1.04483 -4.016063,-1.56724 -0.718333,-0.81629 -1.43664,-1.63255 -2.15496,-2.44882 -0.293864,-0.91425 -0.587716,-1.82845 -0.881575,-2.74268 0,-0.55507 0.195905,-24.58614 0.195905,-24.58614 v -0.29386 h -7.762756 c 0,0 -1.289711,-0.26121 -1.934567,-0.39181 -0.832615,-0.37549 -1.665197,-0.75097 -2.497794,-1.12646 -0.767312,-0.60405 -1.534593,-1.20808 -2.30189,-1.81212 -0.636707,-0.99588 -1.273387,-1.99171 -1.91008,-2.98756 -0.293863,-0.84894 -0.587717,-1.69785 -0.881574,-2.54677 -0.04898,-0.63671 -0.09795,-1.27339 -0.146931,-1.91008 z" /><path
       style="fill:#000000;stroke-width:0.264583"
       d="m 173.9888,154.8722 c 0,0 0,-45.43657 0,-45.43657 -0.20414,-0.49723 -0.40828,-0.99446 -0.75524,-1.60224 -0.34695,-0.60779 -0.83671,-1.32609 -1.55504,-1.99544 -0.71833,-0.66935 -1.66518,-1.28971 -2.84063,-1.69785 -1.17545,-0.40814 -2.57941,-0.60404 -3.93444,-0.58771 -1.35502,0.0163 -2.66103,0.24488 -3.65689,0.55507 -0.99586,0.31019 -1.68152,0.70199 -2.33454,1.22441 -0.65303,0.52242 -1.27338,1.17543 -1.7305,1.87743 -0.45711,0.702 -0.75096,1.45296 -0.89761,1.95905 -0.14665,0.50609 -0.0819,30.67553 -0.0493,45.89086 0.22856,0.62037 0.45711,1.24074 0.84893,1.89376 0.39181,0.65303 0.94687,1.33869 1.74682,1.94274 0.79996,0.60404 1.84477,1.12645 2.93859,1.50193 1.09382,0.37549 2.23658,0.60404 3.47732,0.58772 1.24075,-0.0163 2.57941,-0.27753 3.72221,-0.702 1.14279,-0.42447 2.08965,-1.01218 2.80797,-1.6652 0.71833,-0.65303 1.20808,-1.37133 1.53871,-2.00655 0.33063,-0.63522 0.50211,-1.18731 0.58786,-1.46336 0.0857,-0.27605 0.0858,-0.27605 0.0858,-0.27605 z"
       id="path18"
       inkscape:path-effect="#path-effect19"
       inkscape:original-d="m 173.9888,154.8722 v -45.43657 c 0,0 -0.40828,-0.99446 -0.61242,-1.49169 -0.48977,-0.71834 -0.97953,-1.43664 -1.46929,-2.15496 -0.9469,-0.62038 -1.89375,-1.24074 -2.84063,-1.86111 -1.40402,-0.1959 -2.80798,-0.39181 -4.21197,-0.58771 -1.30606,0.22856 -2.61207,0.45711 -3.91811,0.68567 -0.68568,0.39182 -1.37134,0.78362 -2.05701,1.17543 -0.62038,0.65303 -1.24073,1.30604 -1.8611,1.95906 -0.29386,0.75098 -0.58772,1.50194 -0.88157,2.25291 0,0.26121 0.0979,45.64598 0.0979,45.64598 0,0 0.45711,1.24074 0.68567,1.86111 0.55507,0.68568 1.11013,1.37134 1.66519,2.05701 1.04485,0.52242 2.08966,1.04482 3.13449,1.56724 1.14281,0.22856 2.28557,0.45711 3.42835,0.68567 1.33871,-0.26121 2.67737,-0.52242 4.01606,-0.78362 0.9469,-0.58773 1.89376,-1.17544 2.84063,-1.76315 0.48978,-0.71834 0.97953,-1.43664 1.46929,-2.15496 0.1715,-0.55212 0.34298,-1.10421 0.51447,-1.65631 z"
       transform="translate(-119.13246)" /></g></svg>
