<?xml version="1.0" encoding="UTF-8" standalone="no"?>
<!-- Created with Inkscape (http://www.inkscape.org/) -->

<svg
   width="36.636593mm"
   height="44.754532mm"
   viewBox="0 0 36.636593 44.754532"
   version="1.1"
   id="svg1"
   inkscape:export-filename="apple.svg"
   inkscape:export-xdpi="96"
   inkscape:export-ydpi="96"
   xmlns:inkscape="http://www.inkscape.org/namespaces/inkscape"
   xmlns:sodipodi="http://sodipodi.sourceforge.net/DTD/sodipodi-0.dtd"
   xmlns="http://www.w3.org/2000/svg"
   xmlns:svg="http://www.w3.org/2000/svg">
  <sodipodi:namedview
     id="namedview1"
     pagecolor="#ffffff"
     bordercolor="#eeeeee"
     borderopacity="1"
     inkscape:showpageshadow="0"
     inkscape:pageopacity="0"
     inkscape:pagecheckerboard="0"
     inkscape:deskcolor="#505050"
     inkscape:document-units="mm" />
  <defs
     id="defs1" />
  <g
     inkscape:label="Capa 1"
     inkscape:groupmode="layer"
     id="layer1"
     transform="translate(-61.383333,-86.783333)">
    <g
       id="layer1-2"
       transform="matrix(0.68514728,0,0,0.68016507,14.889957,65.654347)">
      <path
         style="fill:#000000;stroke-width:0.264583"
         d="m 94.561392,43.324044 c 0,0 0,2.666627 0,2.666627 0,0 2.129837,-0.0173 2.129837,-0.0173 0.35786,-0.06349 0.715719,-0.126982 1.059153,-0.227992 0.343434,-0.101011 0.672426,-0.239534 1.030288,-0.389605 0.357863,-0.150072 0.744575,-0.311683 1.163043,-0.522361 0.418467,-0.210677 0.868667,-0.470409 1.339087,-0.779212 0.47042,-0.308803 0.96102,-0.666653 1.38814,-1.033174 0.42713,-0.366521 0.79075,-0.741687 1.19768,-1.21499 0.40692,-0.473303 0.85713,-1.044713 1.2121,-1.567077 0.35498,-0.522363 0.61471,-0.995651 0.88022,-1.526674 0.26551,-0.531023 0.53678,-1.119745 0.75323,-1.619021 0.21645,-0.499275 0.37806,-0.909074 0.51521,-1.3769 0.13715,-0.467827 0.26689,-1.073277 0.3881,-1.638925 0,0 0.0866,-3.012943 0.0866,-3.012943 0,0 -0.50216,0.0173 -0.50216,0.0173 -0.35209,0.05772 -0.70418,0.11544 -1.26695,0.268399 -0.56277,0.152959 -1.33619,0.401145 -2.11829,0.727261 -0.7821,0.326116 -1.57284,0.730145 -2.25105,1.137069 -0.6782,0.406924 -1.24384,0.816723 -1.771977,1.238078 -0.528136,0.421354 -1.018739,0.85424 -1.428549,1.275594 -0.40981,0.421355 -0.738803,0.831152 -1.099552,1.365063 -0.36075,0.53391 -0.75323,1.191894 -1.079347,1.786407 -0.326116,0.594514 -0.585847,1.12552 -0.779208,1.607479 -0.193361,0.48196 -0.320342,0.914846 -0.450211,1.379491 -0.129869,0.464644 -0.26262,0.961021 -0.328997,1.209213 -0.06638,0.248193 -0.0664,0.248193 -0.0664,0.248193 z"
         id="path1" />
      <path
         style="fill:#000000;stroke-width:0.264583"
         d="m 119.20172,52.847713 c 0,0 0.48485,0.623369 0.48485,0.623369 0,0 -0.69264,0.45021 -0.69264,0.45021 -0.30014,0.207789 -0.60027,0.415573 -0.92351,0.669543 -0.32323,0.253969 -0.66953,0.554101 -1.01008,0.877334 -0.34055,0.323232 -0.67531,0.669537 -0.98123,1.027401 -0.30591,0.357863 -0.58296,0.727261 -0.90619,1.18902 -0.32323,0.461759 -0.69263,1.015854 -0.99277,1.546875 -0.30014,0.531021 -0.53101,1.038939 -0.71572,1.477609 -0.1847,0.438671 -0.32322,0.808065 -0.45021,1.223648 -0.12698,0.415583 -0.24242,0.877329 -0.31746,1.310226 -0.075,0.432896 -0.10966,0.836928 -0.13853,1.587288 -0.0289,0.750359 -0.052,1.847002 -0.0231,2.683936 0.0289,0.836935 0.10966,1.414117 0.23665,1.997086 0.12698,0.58297 0.30013,1.171693 0.53101,1.748891 0.23088,0.577198 0.51947,1.142834 0.81385,1.668086 0.29437,0.525251 0.5945,1.01008 0.91196,1.466067 0.31746,0.455988 0.65222,0.8831 1.02163,1.275595 0.36941,0.392495 0.77343,0.750343 1.15438,1.096661 0.38095,0.346318 0.73881,0.681086 1.11976,0.963912 0.38095,0.282826 0.78497,0.513696 1.12552,0.704173 0.34055,0.190476 0.61759,0.340539 0.83116,0.45598 0.21356,0.11544 0.36362,0.196243 0.47982,0.251917 0.1162,0.05568 0.39173,0.157891 0.57066,0.224268 -0.075,0.337658 -0.15007,0.675315 -0.29725,1.150062 -0.14719,0.474747 -0.36652,1.086559 -0.6378,1.744563 -0.27128,0.658005 -0.5945,1.362169 -0.90619,1.997086 -0.31169,0.634917 -0.61182,1.200553 -1.00432,1.875874 -0.39249,0.675322 -0.87733,1.460291 -1.36794,2.227962 -0.49062,0.767672 -0.987,1.518009 -1.48916,2.193329 -0.50216,0.67532 -1.01008,1.275588 -1.5411,1.875875 -0.53103,0.600287 -1.08512,1.200554 -1.66232,1.725805 -0.5772,0.525251 -1.17746,0.975448 -1.62767,1.30445 -0.45022,0.329003 -0.75035,0.536786 -1.1313,0.715717 -0.38096,0.178932 -0.8427,0.328998 -1.65655,0.409804 -0.81385,0.08081 -1.97976,0.09235 -2.82824,0.01154 -0.84847,-0.08081 -1.37948,-0.253963 -1.93359,-0.455981 -0.55411,-0.202019 -1.13129,-0.432891 -1.72004,-0.663771 -0.58874,-0.23088 -1.18901,-0.461754 -1.771978,-0.658001 -0.582967,-0.196246 -1.148604,-0.357857 -1.766206,-0.467524 -0.617602,-0.109667 -1.287133,-0.167386 -2.083667,-0.161613 -0.796533,0.0058 -1.720024,0.07503 -2.522327,0.225107 -0.802302,0.150072 -1.483377,0.380944 -2.245279,0.669544 -0.761902,0.288599 -1.604587,0.634908 -2.406891,0.940823 -0.802304,0.305915 -1.564182,0.571417 -2.227959,0.709943 -0.663778,0.138527 -1.229414,0.15007 -1.910509,0.09812 -0.681094,-0.05195 -1.477604,-0.167385 -2.227961,-0.455986 -0.750356,-0.2886 -1.454517,-0.750344 -2.112522,-1.292911 -0.658005,-0.542567 -1.269816,-1.165923 -1.852786,-1.800842 -0.58297,-0.634918 -1.137064,-1.28136 -1.696945,-1.968226 -0.559882,-0.686865 -1.12552,-1.414113 -1.644997,-2.16447 -0.519477,-0.750358 -0.992765,-1.523779 -1.569964,-2.522334 -0.577198,-0.998555 -1.258272,-2.22218 -1.795064,-3.330397 -0.536792,-1.108217 -0.929275,-2.100968 -1.315998,-3.249595 -0.386724,-1.148626 -0.767663,-2.453054 -1.090893,-3.601676 -0.323231,-1.148622 -0.588734,-2.141373 -0.802297,-3.139925 -0.213563,-0.998552 -0.375173,-2.002847 -0.467524,-2.995627 -0.09235,-0.992781 -0.115436,-1.973988 -0.132751,-2.845556 -0.01732,-0.871568 -0.02886,-1.633446 -0.02309,-2.320311 0.0058,-0.686865 0.02886,-1.298674 0.178931,-2.129842 0.150072,-0.831167 0.427119,-1.881637 0.709946,-2.851328 0.282827,-0.969691 0.571417,-1.858551 0.940824,-2.730119 0.369407,-0.871569 0.819608,-1.725796 1.200559,-2.389572 0.38095,-0.663776 0.692628,-1.137063 1.073579,-1.633453 0.380951,-0.49639 0.831153,-1.015855 1.385263,-1.569965 0.55411,-0.554109 1.212097,-1.142835 1.985543,-1.6854 0.773446,-0.542565 1.662305,-1.038941 2.44152,-1.425662 0.779215,-0.386722 1.448747,-0.663769 2.1587,-0.888875 0.709954,-0.225107 1.460289,-0.398261 2.13561,-0.496384 0.675321,-0.09812 1.275589,-0.121208 1.823926,-0.132752 0.548337,-0.01154 1.044714,-0.01154 1.645,0.06349 0.600287,0.07504 1.304447,0.225103 1.962453,0.404035 0.658005,0.178932 1.269817,0.386718 1.968227,0.640685 0.69841,0.253968 1.483376,0.554102 2.222188,0.842701 0.738813,0.288598 1.43143,0.565645 2.147155,0.709943 0.715726,0.144298 1.454517,0.155841 2.216419,0.02308 0.761902,-0.132757 1.546868,-0.409804 2.441525,-0.756123 0.894657,-0.34632 1.89895,-0.761888 2.79361,-1.085118 0.89465,-0.32323 1.67962,-0.554105 2.43575,-0.709947 0.75613,-0.155843 1.48338,-0.236648 2.39535,-0.253963 0.91198,-0.01731 2.00862,0.02886 2.87441,0.115439 0.8658,0.08658 1.5007,0.21356 2.18757,0.380948 0.68686,0.167387 1.42565,0.375171 2.12406,0.669543 0.69841,0.294373 1.35639,0.675311 1.98554,1.079352 0.62915,0.404041 1.22941,0.831151 1.73734,1.26405 0.50794,0.432898 0.92351,0.871555 1.26983,1.246734 0.34632,0.375179 0.62336,0.686855 0.76189,0.842697 0.13852,0.155841 0.13856,0.155844 0.13856,0.155844 z"
         id="path2" />
    </g>
  </g>
</svg>
