<?xml version="1.0" encoding="UTF-8" standalone="no"?>
<!-- Created with Inkscape (http://www.inkscape.org/) -->

<svg
   width="79.397232mm"
   height="78.856308mm"
   viewBox="0 0 79.397232 78.856308"
   version="1.1"
   id="svg1"
   xml:space="preserve"
   inkscape:version="1.3.2 (091e20e, 2023-11-25, custom)"
   sodipodi:docname="pesaslogo.svg"
   xmlns:inkscape="http://www.inkscape.org/namespaces/inkscape"
   xmlns:sodipodi="http://sodipodi.sourceforge.net/DTD/sodipodi-0.dtd"
   xmlns="http://www.w3.org/2000/svg"
   xmlns:svg="http://www.w3.org/2000/svg"><sodipodi:namedview
     id="namedview1"
     pagecolor="#ffffff"
     bordercolor="#eeeeee"
     borderopacity="1"
     inkscape:showpageshadow="0"
     inkscape:pageopacity="0"
     inkscape:pagecheckerboard="0"
     inkscape:deskcolor="#505050"
     inkscape:document-units="mm"
     inkscape:zoom="0.47749719"
     inkscape:cx="254.45176"
     inkscape:cy="314.13797"
     inkscape:window-width="1366"
     inkscape:window-height="745"
     inkscape:window-x="-8"
     inkscape:window-y="-8"
     inkscape:window-maximized="1"
     inkscape:current-layer="layer1" /><defs
     id="defs1" /><g
     inkscape:label="Capa 1"
     inkscape:groupmode="layer"
     id="layer1"
     transform="translate(-66.634855,-121.06695)"><path
       style="fill:#000000;stroke-width:0.264583"
       d="m 86.171317,182.98301 1.224409,1.27339 -0.587716,0.502 -4.652756,-4.51807 0.636693,-0.55098 1.016259,0.95504 20.398664,-20.12929 -20.227245,-20.37418 -1.126459,1.02851 -0.685667,-0.6367 4.603779,-4.65275 0.538739,0.58772 -0.881573,1.12645 20.080316,20.52111 20.37416,-20.27623 -1.07747,-1.32236 0.78362,-0.68567 4.50583,4.55481 -0.68567,0.68566 -1.07749,-1.07747 -20.47211,20.27621 20.42314,20.47213 1.17543,-1.17543 0.6367,0.63669 -4.55481,4.65276 -0.68567,-0.68567 1.07748,-0.97953 -20.32518,-20.47213 z"
       id="path1-2" /><path
       style="fill:#ffffff;stroke-width:0.264583"
       d="m 84.885661,139.53428 0.832599,-0.78362 43.00713,42.85708 -0.93505,0.83116 z"
       id="path1" /><path
       style="fill:#ffffff;stroke-width:0.264583"
       d="m 104.7379,161.23921 1.02851,0.93055 -20.129296,20.17827 -1.028505,-1.07748 z"
       id="path3" /><path
       style="fill:#ffffff;stroke-width:0.264583"
       d="m 127.27541,138.5673 1.02851,0.93055 -20.1293,20.17827 -1.0285,-1.07748 z"
       id="path3-8" /><path
       style="fill:#000000;stroke-width:0.264583"
       d="m 73.20782,177.0579 2.49347,-2.35494 16.069029,16.06903 -2.147154,2.21641 z"
       id="path4"
       inkscape:transform-center-x="-3.3246269"
       inkscape:transform-center-y="-28.813433" /><path
       style="fill:#000000;stroke-width:0.264583"
       d="m 70.024562,180.14521 2.49347,-2.35494 16.069029,16.06903 -2.147154,2.21641 z"
       id="path4-3"
       inkscape:transform-center-x="-3.3246269"
       inkscape:transform-center-y="-28.813433" /><path
       style="fill:#000000;stroke-width:0.264583"
       d="m 66.634855,183.48922 2.49347,-2.35494 16.069029,16.06903 -2.147154,2.21641 z"
       id="path4-1"
       inkscape:transform-center-x="-3.3246269"
       inkscape:transform-center-y="-28.813433" /><path
       style="fill:#000000;stroke-width:0.264583"
       d="m 121.45277,129.41803 2.49347,-2.5281 2.73589,2.87441 3.15147,3.29 3.56705,3.56705 2.56273,2.5281 2.56273,2.5281 1.52379,1.41989 -2.28568,2.38958 -5.0562,-4.95231 -5.02158,-5.02157 -3.60167,-3.56705 z"
       id="path5" /><path
       style="fill:#000000;stroke-width:0.264583"
       d="m 124.44419,126.36557 2.49347,-2.5281 2.73589,2.87441 3.15147,3.29 3.56705,3.56705 2.56273,2.5281 2.56273,2.5281 1.52379,1.41989 -2.28568,2.38958 -5.0562,-4.95231 -5.02158,-5.02157 -3.60167,-3.56705 z"
       id="path5-7" /><path
       style="fill:#000000;stroke-width:0.264583"
       d="m 127.43496,123.59505 2.49347,-2.5281 2.73589,2.87441 3.15147,3.29 3.56705,3.56705 2.56273,2.5281 2.56273,2.5281 1.52379,1.41989 -2.28568,2.38958 -5.0562,-4.95231 -5.02158,-5.02157 -3.60167,-3.56705 z"
       id="path5-0" /><path
       style="fill:#000000;stroke-width:0.264583"
       d="m 83.075873,121.49137 2.5281,2.49347 -2.87441,2.73589 -3.29,3.15147 -3.56705,3.56705 -2.5281,2.56273 -2.5281,2.56273 -1.41989,1.52379 -2.38958,-2.28568 4.95231,-5.0562 5.02157,-5.02157 3.56705,-3.60168 z"
       id="path5-5" /><path
       style="fill:#000000;stroke-width:0.264583"
       d="m 86.128333,124.48279 2.5281,2.49347 -2.87441,2.73589 -3.29,3.15147 -3.56705,3.56705 -2.5281,2.56273 -2.5281,2.56273 -1.41989,1.52379 -2.38958,-2.28568 4.95231,-5.0562 5.02157,-5.02158 3.56705,-3.60167 z"
       id="path5-7-4" /><path
       style="fill:#000000;stroke-width:0.264583"
       d="m 88.898853,127.47356 2.5281,2.49347 -2.87441,2.73589 -3.29,3.15147 -3.56705,3.56705 -2.5281,2.56273 -2.5281,2.56273 -1.41989,1.52379 -2.38958,-2.28568 4.95231,-5.0562 5.02157,-5.02158 3.56705,-3.60167 z"
       id="path5-0-4" /><path
       style="fill:#000000;stroke-width:0.264583"
       d="m 137.24683,175.34394 2.5281,2.49347 -2.87441,2.73589 -3.29,3.15147 -3.56705,3.56705 -2.5281,2.56273 -2.5281,2.56273 -1.41989,1.52379 -2.38958,-2.28568 4.95231,-5.0562 5.02157,-5.02157 3.56705,-3.60168 z"
       id="path5-5-5" /><path
       style="fill:#000000;stroke-width:0.264583"
       d="m 140.29929,178.33536 2.5281,2.49347 -2.87441,2.73589 -3.29,3.15147 -3.56705,3.56705 -2.5281,2.56273 -2.5281,2.56273 -1.41989,1.52379 -2.38958,-2.28568 4.95231,-5.0562 5.02157,-5.02158 3.56705,-3.60167 z"
       id="path5-7-4-9" /><path
       style="fill:#000000;stroke-width:0.264583"
       d="m 143.06981,181.32613 2.5281,2.49347 -2.87441,2.73589 -3.29,3.15147 -3.56705,3.56705 -2.5281,2.56273 -2.5281,2.56273 -1.41989,1.52379 -2.38958,-2.28568 4.95231,-5.0562 5.02157,-5.02158 3.56705,-3.60167 z"
       id="path5-0-4-8" /><path
       style="fill:#000000;stroke-width:0.264583"
       d="m 72.423582,191.89219 -1.273384,-1.27339 0.906063,-0.78362 4.70173,4.7752 -0.685668,0.66118 -1.101968,-1.17543 -5.436378,5.21598 -2.228427,-2.20394 z"
       id="path6"
       inkscape:transform-center-x="2.1794489"
       inkscape:transform-center-y="-4.3344096" /><path
       style="fill:#ffffff;stroke-width:0.264583"
       d="m 73.060276,192.74928 0.857086,0.85708 -4.530315,4.62827 -0.906063,-1.0285 z"
       id="path7"
       inkscape:transform-center-x="1.8366142"
       inkscape:transform-center-y="-3.4773229" /><path
       style="fill:#000000;stroke-width:0.264583"
       d="m 137.38585,194.80401 -1.27338,1.27339 -0.78363,-0.90607 4.7752,-4.70173 0.66118,0.68567 -1.17543,1.10197 5.21598,5.43638 -2.20394,2.22842 z"
       id="path6-6"
       inkscape:transform-center-x="4.3344139"
       inkscape:transform-center-y="2.1794454" /><path
       style="fill:#ffffff;stroke-width:0.264583"
       d="m 138.24294,194.16732 0.85709,-0.85709 4.62826,4.53032 -1.0285,0.90606 z"
       id="path7-5"
       inkscape:transform-center-x="3.4773272"
       inkscape:transform-center-y="1.8366107" /><path
       style="fill:#000000;stroke-width:0.264583"
       d="m 140.86165,129.34698 1.27339,1.27339 -0.90607,0.78362 -4.70173,-4.7752 0.68567,-0.66118 1.10197,1.17543 5.43638,-5.21598 2.22842,2.20394 z"
       id="path6-7"
       inkscape:transform-center-x="-2.1794411"
       inkscape:transform-center-y="4.3344104" /><path
       style="fill:#ffffff;stroke-width:0.264583"
       d="m 140.22496,128.48989 -0.85709,-0.85708 4.53032,-4.62827 0.90606,1.0285 z"
       id="path7-8"
       inkscape:transform-center-x="-1.8366064"
       inkscape:transform-center-y="3.4773237" /><path
       style="fill:#000000;stroke-width:0.264583"
       d="m 75.134034,126.52742 1.27339,-1.27338 0.78362,0.90606 -4.7752,4.70173 -0.66118,-0.68567 1.17543,-1.10196 -5.21598,-5.43638 2.20394,-2.22843 z"
       id="path6-2"
       inkscape:transform-center-x="-4.3344095"
       inkscape:transform-center-y="-2.1794501" /><path
       style="fill:#ffffff;stroke-width:0.264583"
       d="m 74.276944,127.16412 -0.85708,0.85708 -4.62827,-4.53031 1.0285,-0.90607 z"
       id="path7-6"
       inkscape:transform-center-x="-3.4773228"
       inkscape:transform-center-y="-1.8366179" /></g></svg>
